<svg xmlns="http://www.w3.org/2000/svg" xmlns:xlink="http://www.w3.org/1999/xlink" width="300" zoomAndPan="magnify" viewBox="0 0 224.87999 112.499997" height="150" preserveAspectRatio="xMidYMid meet" version="1.0"><defs><g/><clipPath id="cca07faff3"><path d="M 83 2.121094 L 98 2.121094 L 98 28 L 83 28 Z M 83 2.121094 " clip-rule="nonzero"/></clipPath><clipPath id="40cb40bd64"><path d="M 83 2.121094 L 135.207031 2.121094 L 135.207031 81.269531 L 83 81.269531 Z M 83 2.121094 " clip-rule="nonzero"/></clipPath><clipPath id="bbd095ad14"><path d="M 143.359375 39 L 163 39 L 163 80.617188 L 143.359375 80.617188 Z M 143.359375 39 " clip-rule="nonzero"/></clipPath><clipPath id="e574d8446d"><path d="M 143.359375 2.964844 L 222.507812 2.964844 L 222.507812 80.617188 L 143.359375 80.617188 Z M 143.359375 2.964844 " clip-rule="nonzero"/></clipPath><clipPath id="1bf942b8b4"><path d="M 2.101562 1.28125 L 74.527344 1.28125 L 74.527344 80.429688 L 2.101562 80.429688 Z M 2.101562 1.28125 " clip-rule="nonzero"/></clipPath><clipPath id="44e42747dc"><rect x="0" width="192" y="0" height="27"/></clipPath><clipPath id="4c6c0ad624"><path d="M 82.59375 1.28125 L 97.851562 1.28125 L 97.851562 27.777344 L 82.59375 27.777344 Z M 82.59375 1.28125 " clip-rule="nonzero"/></clipPath><clipPath id="3a7fdb5045"><path d="M 0.59375 0.28125 L 15.851562 0.28125 L 15.851562 26.777344 L 0.59375 26.777344 Z M 0.59375 0.28125 " clip-rule="nonzero"/></clipPath><clipPath id="99261e3c09"><rect x="0" width="16" y="0" height="27"/></clipPath></defs><g clip-path="url(#cca07faff3)"><path fill="#000000" d="M 97.90625 27.957031 L 97.90625 2.121094 L 83.058594 2.121094 L 83.058594 27.957031 L 97.90625 27.957031 " fill-opacity="1" fill-rule="nonzero"/></g><g clip-path="url(#40cb40bd64)"><path fill="#000000" d="M 83.058594 31.804688 L 120.183594 31.804688 L 120.183594 2.121094 L 135.035156 2.121094 L 135.035156 81.269531 L 120.183594 81.269531 L 120.183594 46.644531 L 97.90625 46.644531 L 97.90625 81.269531 L 83.058594 81.269531 L 83.058594 31.804688 " fill-opacity="1" fill-rule="nonzero"/></g><g clip-path="url(#bbd095ad14)"><path fill="#000000" d="M 143.558594 39.699219 L 162.726562 58.867188 L 162.726562 80.164062 L 143.558594 80.164062 Z M 143.558594 39.699219 " fill-opacity="1" fill-rule="nonzero"/></g><g clip-path="url(#e574d8446d)"><path fill="#000000" d="M 222.449219 80.371094 L 192.703125 80.371094 L 192.265625 79.933594 L 162.542969 50.324219 L 162.542969 50.441406 L 143.375 31.273438 L 143.375 2.964844 L 195.089844 2.964844 C 196.546875 2.964844 198.027344 3.078125 199.488281 3.402344 C 203.886719 4.304688 207.820312 6.433594 210.992188 9.605469 C 213.929688 12.546875 215.945312 16.25 216.964844 20.324219 C 217.402344 22.015625 217.636719 23.820312 217.636719 25.625 C 217.636719 26.414062 217.636719 27.199219 217.519531 27.988281 C 217.289062 34.191406 214.8125 39.933594 210.527344 44.214844 C 206.128906 48.613281 200.273438 51.089844 194.070312 51.207031 L 193.839844 51.207031 C 193.492188 51.207031 193.167969 51.207031 192.820312 51.207031 Z M 191.570312 31.921875 C 192.007812 31.921875 192.472656 31.921875 192.914062 31.804688 C 193.257812 31.691406 193.582031 31.574219 193.929688 31.460938 C 194.832031 31.113281 195.621094 30.554688 196.292969 29.886719 C 196.40625 29.769531 196.523438 29.652344 196.640625 29.539062 C 196.753906 29.421875 196.871094 29.304688 196.988281 29.191406 C 197.101562 29.074219 197.101562 28.960938 197.101562 28.84375 C 197.21875 28.613281 197.332031 28.402344 197.449219 28.171875 C 197.796875 27.269531 198.003906 26.367188 198.003906 25.347656 C 198.003906 25.230469 198.003906 25.117188 198.003906 25 C 198.003906 24.886719 198.003906 24.769531 198.003906 24.652344 C 198.003906 24.421875 198.003906 24.214844 197.890625 23.980469 C 197.773438 23.636719 197.65625 23.3125 197.542969 22.964844 L 163.953125 22.964844 L 173.074219 32.085938 L 191.453125 32.085938 Z M 191.570312 31.921875 " fill-opacity="1" fill-rule="nonzero"/></g><g clip-path="url(#1bf942b8b4)"><path fill="#000000" d="M 38.390625 1.28125 C 16.359375 1.28125 2.128906 16.804688 2.128906 40.832031 C 2.128906 65.257812 16.023438 80.429688 38.390625 80.429688 C 60.664062 80.429688 74.503906 65.257812 74.503906 40.832031 C 74.503906 16.4375 60.664062 1.28125 38.390625 1.28125 Z M 38.390625 66.664062 C 25.496094 66.664062 17.636719 56.558594 17.636719 40.832031 C 17.636719 25.058594 25.691406 15.046875 38.390625 15.046875 C 51.039062 15.046875 58.992188 25.058594 58.992188 40.832031 C 58.992188 56.558594 51.085938 66.664062 38.390625 66.664062 Z M 38.390625 66.664062 " fill-opacity="1" fill-rule="nonzero"/></g><g transform="matrix(1, 0, 0, 1, 24, 85)"><g clip-path="url(#44e42747dc)"><g fill="#000000" fill-opacity="1"><g transform="translate(0.681079, 18.771867)"><g><path d="M 5.984375 0.25 C 4.910156 0.25 3.988281 0.078125 3.21875 -0.265625 C 2.445312 -0.617188 1.847656 -1.117188 1.421875 -1.765625 C 1.003906 -2.421875 0.796875 -3.1875 0.796875 -4.0625 L 3.640625 -4.0625 C 3.640625 -3.457031 3.847656 -2.984375 4.265625 -2.640625 C 4.691406 -2.304688 5.257812 -2.140625 5.96875 -2.140625 C 6.570312 -2.140625 7.050781 -2.253906 7.40625 -2.484375 C 7.757812 -2.722656 7.9375 -3.054688 7.9375 -3.484375 C 7.9375 -3.929688 7.722656 -4.296875 7.296875 -4.578125 C 6.867188 -4.859375 6.207031 -5.09375 5.3125 -5.28125 C 3.8125 -5.601562 2.703125 -6.082031 1.984375 -6.71875 C 1.265625 -7.363281 0.90625 -8.207031 0.90625 -9.25 C 0.90625 -10.414062 1.332031 -11.332031 2.1875 -12 C 3.039062 -12.675781 4.203125 -13.015625 5.671875 -13.015625 C 6.679688 -13.015625 7.554688 -12.84375 8.296875 -12.5 C 9.035156 -12.15625 9.609375 -11.671875 10.015625 -11.046875 C 10.421875 -10.421875 10.625 -9.675781 10.625 -8.8125 L 7.84375 -8.8125 C 7.84375 -9.382812 7.648438 -9.832031 7.265625 -10.15625 C 6.890625 -10.488281 6.367188 -10.65625 5.703125 -10.65625 C 5.097656 -10.65625 4.617188 -10.535156 4.265625 -10.296875 C 3.910156 -10.054688 3.734375 -9.722656 3.734375 -9.296875 C 3.734375 -8.910156 3.925781 -8.582031 4.3125 -8.3125 C 4.707031 -8.039062 5.390625 -7.789062 6.359375 -7.5625 C 7.953125 -7.1875 9.101562 -6.679688 9.8125 -6.046875 C 10.519531 -5.421875 10.875 -4.601562 10.875 -3.59375 C 10.875 -2.382812 10.4375 -1.441406 9.5625 -0.765625 C 8.695312 -0.0859375 7.503906 0.25 5.984375 0.25 Z M 5.984375 0.25 "/></g></g></g><g fill="#000000" fill-opacity="1"><g transform="translate(26.946617, 18.771867)"><g><path d="M 4.875 0 L 4.875 -4.46875 L 0.171875 -12.765625 L 3.46875 -12.765625 L 5.046875 -9.8125 L 6.328125 -7.5 L 7.578125 -9.8125 L 9.15625 -12.765625 L 12.453125 -12.765625 L 7.765625 -4.5 L 7.765625 0 Z M 4.875 0 "/></g></g></g><g fill="#000000" fill-opacity="1"><g transform="translate(54.141653, 18.771867)"><g><path d="M 5.984375 0.25 C 4.910156 0.25 3.988281 0.078125 3.21875 -0.265625 C 2.445312 -0.617188 1.847656 -1.117188 1.421875 -1.765625 C 1.003906 -2.421875 0.796875 -3.1875 0.796875 -4.0625 L 3.640625 -4.0625 C 3.640625 -3.457031 3.847656 -2.984375 4.265625 -2.640625 C 4.691406 -2.304688 5.257812 -2.140625 5.96875 -2.140625 C 6.570312 -2.140625 7.050781 -2.253906 7.40625 -2.484375 C 7.757812 -2.722656 7.9375 -3.054688 7.9375 -3.484375 C 7.9375 -3.929688 7.722656 -4.296875 7.296875 -4.578125 C 6.867188 -4.859375 6.207031 -5.09375 5.3125 -5.28125 C 3.8125 -5.601562 2.703125 -6.082031 1.984375 -6.71875 C 1.265625 -7.363281 0.90625 -8.207031 0.90625 -9.25 C 0.90625 -10.414062 1.332031 -11.332031 2.1875 -12 C 3.039062 -12.675781 4.203125 -13.015625 5.671875 -13.015625 C 6.679688 -13.015625 7.554688 -12.84375 8.296875 -12.5 C 9.035156 -12.15625 9.609375 -11.671875 10.015625 -11.046875 C 10.421875 -10.421875 10.625 -9.675781 10.625 -8.8125 L 7.84375 -8.8125 C 7.84375 -9.382812 7.648438 -9.832031 7.265625 -10.15625 C 6.890625 -10.488281 6.367188 -10.65625 5.703125 -10.65625 C 5.097656 -10.65625 4.617188 -10.535156 4.265625 -10.296875 C 3.910156 -10.054688 3.734375 -9.722656 3.734375 -9.296875 C 3.734375 -8.910156 3.925781 -8.582031 4.3125 -8.3125 C 4.707031 -8.039062 5.390625 -7.789062 6.359375 -7.5625 C 7.953125 -7.1875 9.101562 -6.679688 9.8125 -6.046875 C 10.519531 -5.421875 10.875 -4.601562 10.875 -3.59375 C 10.875 -2.382812 10.4375 -1.441406 9.5625 -0.765625 C 8.695312 -0.0859375 7.503906 0.25 5.984375 0.25 Z M 5.984375 0.25 "/></g></g></g><g fill="#000000" fill-opacity="1"><g transform="translate(80.407191, 18.771867)"><g><path d="M 4.59375 0 L 4.59375 -10.046875 L 0.546875 -10.046875 L 0.546875 -12.765625 L 11.546875 -12.765625 L 11.546875 -10.046875 L 7.5 -10.046875 L 7.5 0 Z M 4.59375 0 "/></g></g></g><g fill="#000000" fill-opacity="1"><g transform="translate(107.073691, 18.771867)"><g><path d="M 1.53125 0 L 1.53125 -12.765625 L 4 -12.765625 L 8.53125 -6.140625 L 13.0625 -12.765625 L 15.5 -12.765625 L 15.5 0 L 12.625 0 L 12.625 -7.671875 L 9.515625 -3.15625 L 7.515625 -3.15625 L 4.40625 -7.6875 L 4.40625 0 Z M 1.53125 0 "/></g></g></g><g fill="#000000" fill-opacity="1"><g transform="translate(138.679307, 18.771867)"><g><path d="M 1.53125 0 L 1.53125 -12.765625 L 9.921875 -12.765625 L 9.921875 -10.328125 L 4.40625 -10.328125 L 4.40625 -7.671875 L 9.421875 -7.671875 L 9.421875 -5.25 L 4.40625 -5.25 L 4.40625 -2.46875 L 10.125 -2.46875 L 10.125 0 Z M 1.53125 0 "/></g></g></g><g fill="#000000" fill-opacity="1"><g transform="translate(164.306958, 18.771867)"><g><path d="M 5.984375 0.25 C 4.910156 0.25 3.988281 0.078125 3.21875 -0.265625 C 2.445312 -0.617188 1.847656 -1.117188 1.421875 -1.765625 C 1.003906 -2.421875 0.796875 -3.1875 0.796875 -4.0625 L 3.640625 -4.0625 C 3.640625 -3.457031 3.847656 -2.984375 4.265625 -2.640625 C 4.691406 -2.304688 5.257812 -2.140625 5.96875 -2.140625 C 6.570312 -2.140625 7.050781 -2.253906 7.40625 -2.484375 C 7.757812 -2.722656 7.9375 -3.054688 7.9375 -3.484375 C 7.9375 -3.929688 7.722656 -4.296875 7.296875 -4.578125 C 6.867188 -4.859375 6.207031 -5.09375 5.3125 -5.28125 C 3.8125 -5.601562 2.703125 -6.082031 1.984375 -6.71875 C 1.265625 -7.363281 0.90625 -8.207031 0.90625 -9.25 C 0.90625 -10.414062 1.332031 -11.332031 2.1875 -12 C 3.039062 -12.675781 4.203125 -13.015625 5.671875 -13.015625 C 6.679688 -13.015625 7.554688 -12.84375 8.296875 -12.5 C 9.035156 -12.15625 9.609375 -11.671875 10.015625 -11.046875 C 10.421875 -10.421875 10.625 -9.675781 10.625 -8.8125 L 7.84375 -8.8125 C 7.84375 -9.382812 7.648438 -9.832031 7.265625 -10.15625 C 6.890625 -10.488281 6.367188 -10.65625 5.703125 -10.65625 C 5.097656 -10.65625 4.617188 -10.535156 4.265625 -10.296875 C 3.910156 -10.054688 3.734375 -9.722656 3.734375 -9.296875 C 3.734375 -8.910156 3.925781 -8.582031 4.3125 -8.3125 C 4.707031 -8.039062 5.390625 -7.789062 6.359375 -7.5625 C 7.953125 -7.1875 9.101562 -6.679688 9.8125 -6.046875 C 10.519531 -5.421875 10.875 -4.601562 10.875 -3.59375 C 10.875 -2.382812 10.4375 -1.441406 9.5625 -0.765625 C 8.695312 -0.0859375 7.503906 0.25 5.984375 0.25 Z M 5.984375 0.25 "/></g></g></g></g></g><g clip-path="url(#4c6c0ad624)"><g transform="matrix(1, 0, 0, 1, 82, 1)"><g clip-path="url(#99261e3c09)"><g clip-path="url(#3a7fdb5045)"><path fill="#000000" d="M 0.59375 0.28125 L 15.851562 0.28125 L 15.851562 26.804688 L 0.59375 26.804688 Z M 0.59375 0.28125 " fill-opacity="1" fill-rule="nonzero"/></g></g></g></g></svg>